<svg xmlns="http://www.w3.org/2000/svg" xmlns:xlink="http://www.w3.org/1999/xlink" width="500" zoomAndPan="magnify" viewBox="0 0 375 374.999991" height="500" preserveAspectRatio="xMidYMid meet" version="1.0"><defs><g/></defs><rect x="-37.5" width="450" fill="#ffffff" y="-37.499999" height="449.999989" fill-opacity="1"/><rect x="-37.5" width="450" fill="#ffffff" y="-37.499999" height="449.999989" fill-opacity="1"/><rect x="-37.5" width="450" fill="#000000" y="-37.499999" height="449.999989" fill-opacity="1"/><g fill="#f1f0ed" fill-opacity="1"><g transform="translate(31.646014, 242.999764)"><g><path d="M 33.914062 -147.21875 L 98.40625 1.566406 L 170.546875 -165.054688 L 170.546875 -21.5625 C 170.546875 -9.214844 162.117188 -1.765625 148.199219 -1.765625 L 148.199219 0 L 232.882812 0 L 232.882812 -1.765625 C 219.945312 -1.765625 210.925781 -8.625 210.535156 -21.5625 L 210.535156 -146.433594 C 210.535156 -168.191406 232.6875 -167.015625 232.6875 -167.015625 L 232.6875 -168.976562 L 170.347656 -168.976562 L 119.1875 -50.96875 L 68.023438 -168.976562 L 9.800781 -168.976562 L 9.800781 -167.210938 C 9.800781 -167.015625 32.148438 -168.191406 32.148438 -147.21875 L 32.148438 -21.5625 C 32.148438 -9.214844 23.71875 -1.765625 9.800781 -1.765625 L 9.800781 0 L 56.261719 0 L 56.261719 -1.765625 C 43.324219 -1.765625 34.304688 -8.625 33.914062 -21.5625 Z M 33.914062 -147.21875 "/></g></g></g><g fill="#f1f0ed" fill-opacity="1"><g transform="translate(170.966726, 242.999764)"><g><path d="M 9.800781 -1.765625 L 9.800781 0 L 101.738281 0 C 134.476562 0 163.488281 -12.9375 163.488281 -45.675781 C 163.488281 -75.863281 138.789062 -88.605469 111.148438 -90.171875 C 134.867188 -94.09375 156.234375 -103.308594 156.234375 -129.378906 C 156.234375 -160.941406 126.4375 -168.976562 94.683594 -168.976562 L 9.800781 -168.976562 L 9.800781 -167.210938 L 12.152344 -167.210938 C 18.035156 -167.015625 32.933594 -164.46875 32.933594 -146.433594 L 32.933594 -22.542969 C 32.933594 -4.703125 18.425781 -2.15625 12.351562 -1.765625 Z M 94.683594 -90.566406 L 73.511719 -90.566406 L 73.511719 -167.210938 L 94.683594 -167.210938 C 108.796875 -167.210938 116.246094 -153.097656 116.246094 -129.378906 C 116.246094 -105.464844 108.796875 -90.566406 94.683594 -90.566406 Z M 101.738281 -1.765625 L 93.113281 -1.765625 C 88.015625 -1.960938 73.511719 -4.117188 73.511719 -22.152344 L 73.511719 -88.605469 L 101.738281 -88.605469 C 115.851562 -88.605469 123.5 -69.589844 123.5 -45.675781 C 123.5 -21.757812 115.851562 -1.765625 101.738281 -1.765625 Z M 101.738281 -1.765625 "/></g></g></g></svg>